# xmcd
#
# Track frame offsets: 
#        150
#        12885
#        28608
#        40066
#        57998
#        75357
#        88863
#        96349
#        106580
#        120539
#        139787
#
# Disc length: 2005 seconds
#
# Revision: 0
# Processed by: cddbd v1.5.2PL0 Copyright (c) Steve Scherf et al.
# Submitted via: ExactAudioCopy v0.99pb4
#
DISCID=7e07d30b
DTITLE=Various Artist - The Outlaws
DYEAR=1976
DGENRE=Classic Country
TTITLE0=Waylon Jennings - My Heroes Have Always Been Cowboys
TTITLE1=Waylon Jennings - Honky Tonk Heroes
TTITLE2=Jessie Colter - You Mean to Say
TTITLE3=Waylon Jennings and Jessie Colter - Suspicious Minds
TTITLE4=Willie Nelson - Me and Paul
TTITLE5=Waylon Jennings and Willie Nelson - Good Hearted Woman
TTITLE6=Waylon Jennings and Willie Nelson - Heaven or Hell
TTITLE7=Jessie Colter - I'm Looking for Blue Eyes
TTITLE8=Willie Nelson - Yesterday's Wine
TTITLE9=Tompall Glaser - T for Texas
TTITLE10=Tompall Glaser - Put Another Log on the Fire
EXTD=
EXTT0=
EXTT1=
EXTT2=
EXTT3=
EXTT4=
EXTT5=
EXTT6=
EXTT7=
EXTT8=
EXTT9=
EXTT10=
PLAYORDER=
